<!DOCTYPE svg PUBLIC "-//W3C//DTD SVG 1.1//EN" "http://www.w3.org/Graphics/SVG/1.1/DTD/svg11.dtd">
<!-- Uploaded to: SVG Repo, www.svgrepo.com, Transformed by: SVG Repo Mixer Tools -->
<svg width="800px" height="800px" viewBox="0 0 1024 1024" class="icon" version="1.1" xmlns="http://www.w3.org/2000/svg" fill="#ffffff" stroke="#ffffff">
<g id="SVGRepo_bgCarrier" stroke-width="0"/>
<g id="SVGRepo_tracerCarrier" stroke-linecap="round" stroke-linejoin="round"/>
<g id="SVGRepo_iconCarrier">
<path d="M352.329143 79.286857c35.474286 0 64.146286 28.525714 64.146286 63.853714v190.902858a64 64 0 0 1-64.146286 63.853714H180.955429a63.926857 63.926857 0 0 1-64.073143-63.853714v-190.902858c0-35.254857 28.672-63.853714 64.073143-63.853714h171.373714z m0 510.244572c35.474286 0 64.146286 28.525714 64.146286 63.853714v190.902857a64 64 0 0 1-64.146286 63.853714H180.955429a63.926857 63.926857 0 0 1-64.073143-63.853714v-190.902857c0-35.328 28.672-63.853714 64.073143-63.853714h171.373714z m490.715428-510.244572c35.401143 0 64.073143 28.525714 64.073143 63.853714v190.902858a64 64 0 0 1-64.073143 63.853714H671.670857a63.926857 63.926857 0 0 1-64.146286-63.853714v-190.902858c0-35.254857 28.745143-63.853714 64.146286-63.853714h171.373714z m-669.988571 379.611429h187.172571c64.512 0 116.736-51.931429 116.736-116.077715v-208.457142A116.297143 116.297143 0 0 0 360.228571 18.285714H173.129143C108.617143 18.285714 56.32 70.217143 56.32 134.436571v208.384a116.297143 116.297143 0 0 0 116.736 116.077715z m0 510.244571h187.172571c64.512 0 116.736-51.931429 116.736-116.150857V644.608a116.297143 116.297143 0 0 0-116.736-116.077714H173.129143c-64.512 0-116.736 51.931429-116.736 116.077714v208.457143a116.297143 116.297143 0 0 0 116.736 116.077714z m490.788571-510.244571h187.026286c64.512 0 116.736-51.931429 116.736-116.077715v-208.457142A116.297143 116.297143 0 0 0 850.870857 18.285714H663.771429C599.259429 18.285714 547.108571 70.217143 547.108571 134.436571v208.384a116.297143 116.297143 0 0 0 116.736 116.077715z m178.980572 448.877714H663.698286c-38.619429 0-55.296-16.091429-55.296-54.784V644.608c0-38.546286 16.749714-55.369143 55.369143-55.369143h187.099428c38.765714 0 56.173714 16.749714 56.173714 55.296V853.138286c0 12.8 13.677714 27.501714 31.524572 27.501714s29.037714-14.701714 29.037714-27.501714V644.534857a116.297143 116.297143 0 0 0-116.736-116.004571H663.771429c-64.512 0-116.736 51.931429-116.736 116.077714v208.457143a116.297143 116.297143 0 0 0 116.662857 116.077714H850.285714c13.458286 0 30.72-10.971429 30.72-30.793143a30.72 30.72 0 0 0-30.134857-30.573714h-7.972571z" fill="#ffffff"/>
</g>
</svg>