<?xml version="1.0" encoding="UTF-8" standalone="no" ?>
<!DOCTYPE svg PUBLIC "-//W3C//DTD SVG 1.1//EN" "http://www.w3.org/Graphics/SVG/1.1/DTD/svg11.dtd">
<svg xmlns="http://www.w3.org/2000/svg" xmlns:xlink="http://www.w3.org/1999/xlink" version="1.1" width="365.9675" height="160.6112" xml:space="preserve">
<desc>Created with Fabric.js 1.6.0-rc.1</desc>
<defs></defs>
<g style="stroke: none; stroke-width: 1; stroke-dasharray: none; stroke-linecap: butt; stroke-linejoin: miter; stroke-miterlimit: 10; fill: none; fill-rule: nonzero; opacity: 1;" transform="translate(10 10.000000000000007) scale(0.24 0.24)" >
  <path d="M 256 512 l 144.376 -266.624 c 13.224 -23.752 20.816 -51.072 20.816 -80.184 C 421.192 73.96 347.232 0 256 0 V 512 z" style="stroke: none; stroke-width: 1; stroke-dasharray: none; stroke-linecap: butt; stroke-linejoin: miter; stroke-miterlimit: 10; fill: #aa0d51; fill-rule: nonzero; opacity: 1;" transform=" matrix(1 0 0 1 0 0) " stroke-linecap="round" />
  <path d="M 256 512 L 111.624 245.376 c -13.224 -23.752 -20.816 -51.072 -20.816 -80.184 C 90.808 73.96 164.768 0 256 0 V 512 z" style="stroke: none; stroke-width: 1; stroke-dasharray: none; stroke-linecap: butt; stroke-linejoin: miter; stroke-miterlimit: 10; fill: #aa0d57; fill-rule: nonzero; opacity: 1;" transform=" matrix(1 0 0 1 0 0) " stroke-linecap="round" />
  <path d="M 256 90.608 c 40.368 0 73.088 32.72 73.088 73.088 s -32.72 73.088 -73.088 73.088 s -73.088 -32.72 -73.088 -73.088 S 215.632 90.608 256 90.608 M 256 82.608 c -44.712 0 -81.088 36.376 -81.088 81.088 s 36.376 81.088 81.088 81.088 s 81.088 -36.376 81.088 -81.088 S 300.712 82.608 256 82.608 L 256 82.608 z" style="stroke: none; stroke-width: 1; stroke-dasharray: none; stroke-linecap: butt; stroke-linejoin: miter; stroke-miterlimit: 10; fill: #ffffff; fill-rule: nonzero; opacity: 1;" transform=" matrix(1 0 0 1 0 0) " stroke-linecap="round" />
</g>
  <g transform="translate(228.3 109.47) scale(1.6 1.6)">
   <text font-family="Lobster 13" font-size="40" font-weight="normal" style="stroke: none; stroke-width: 1; stroke-dasharray: none; stroke-linecap: butt; stroke-linejoin: miter; stroke-miterlimit: 10; fill: #aa0d56; fill-rule: nonzero; opacity: 1;" ><tspan x="-80.29" y="8.98" style="stroke: none; stroke-width: 0; stroke-dasharray: none; stroke-linecap: butt; stroke-linejoin: miter; stroke-miterlimit: 4; fill: #aa0d56; fill-rule: ; opacity: 1;">l</tspan><tspan x="-68.87" y="8.98" style="stroke: none; stroke-width: 0; stroke-dasharray: none; stroke-linecap: butt; stroke-linejoin: miter; stroke-miterlimit: 4; fill: #aa0d56; fill-rule: ; opacity: 1;">o</tspan><tspan x="-52.15" y="8.98" style="stroke: none; stroke-width: 0; stroke-dasharray: none; stroke-linecap: butt; stroke-linejoin: miter; stroke-miterlimit: 4; fill: #aa0d56; fill-rule: ; opacity: 1;">c</tspan><tspan x="-37.75" y="8.98" style="stroke: none; stroke-width: 0; stroke-dasharray: none; stroke-linecap: butt; stroke-linejoin: miter; stroke-miterlimit: 4; fill: #aa0d56; fill-rule: ; opacity: 1;">a</tspan><tspan x="-17.64" y="8.98" style="stroke: none; stroke-width: 0; stroke-dasharray: none; stroke-linecap: butt; stroke-linejoin: miter; stroke-miterlimit: 4; fill: #aa0d56; fill-rule: ; opacity: 1;">l</tspan><tspan x="-6.21" y="8.98" style="stroke: none; stroke-width: 0; stroke-dasharray: none; stroke-linecap: butt; stroke-linejoin: miter; stroke-miterlimit: 4; fill: #aa0d56; fill-rule: ; opacity: 1;">l</tspan><tspan x="5.21" y="8.98" style="stroke: none; stroke-width: 0; stroke-dasharray: none; stroke-linecap: butt; stroke-linejoin: miter; stroke-miterlimit: 4; fill: #aa0d56; fill-rule: ; opacity: 1;">y</tspan><tspan x="25.61" y="8.98" style="stroke: none; stroke-width: 0; stroke-dasharray: none; stroke-linecap: butt; stroke-linejoin: miter; stroke-miterlimit: 4; fill: #aa0d56; fill-rule: ; opacity: 1;"> </tspan><tspan x="34.28" y="8.98" style="stroke: none; stroke-width: 0; stroke-dasharray: none; stroke-linecap: butt; stroke-linejoin: miter; stroke-miterlimit: 4; fill: #aa0d56; fill-rule: ; opacity: 1;">l</tspan><tspan x="45.7" y="8.98" style="stroke: none; stroke-width: 0; stroke-dasharray: none; stroke-linecap: butt; stroke-linejoin: miter; stroke-miterlimit: 4; fill: #aa0d56; fill-rule: ; opacity: 1;">e</tspan><tspan x="59.9" y="8.98" style="stroke: none; stroke-width: 0; stroke-dasharray: none; stroke-linecap: butt; stroke-linejoin: miter; stroke-miterlimit: 4; fill: #aa0d56; fill-rule: ; opacity: 1;">d</tspan></text>
 </g>
</svg>